<svg width="40" height="40" viewBox="0 0 40 40" xmlns="http://www.w3.org/2000/svg"><g transform="translate(0 1)" fill="none" fill-rule="evenodd"><path d="M26.436 17.926c-.028-2.9 2.463-4.31 2.577-4.375-1.41-1.982-3.597-2.252-4.365-2.274-1.837-.187-3.618 1.058-4.553 1.058-.954 0-2.394-1.04-3.947-1.01-1.998.03-3.867 1.145-4.892 2.875-2.115 3.528-.538 8.714 1.49 11.566 1.013 1.398 2.197 2.957 3.749 2.902 1.516-.059 2.083-.931 3.914-.931 1.814 0 2.346.93 3.927.896 1.627-.024 2.653-1.403 3.631-2.813 1.172-1.6 1.642-3.178 1.661-3.258-.037-.013-3.161-1.162-3.192-4.636M23.448 9.4c.816-.983 1.374-2.32 1.22-3.678-1.181.05-2.658.787-3.51 1.748-.751.848-1.423 2.237-1.25 3.543 1.327.096 2.689-.645 3.54-1.613" fill="#000"/><circle stroke="#CFCFCF" cx="19.75" cy="19.25" r="19"/></g></svg>