<svg width="39" height="40" viewBox="0 0 39 40" xmlns="http://www.w3.org/2000/svg" xmlns:xlink="http://www.w3.org/1999/xlink"><defs><linearGradient x1="19.215%" y1="-35.157%" x2="69.302%" y2="93.537%" id="b"><stop stop-color="#19A3B4" offset="0%"/><stop stop-color="#5BC3AF" offset="34.817%"/><stop stop-color="#C9F7A6" offset="92.234%"/><stop stop-color="#D7FEA5" offset="100%"/></linearGradient><path d="M15.93 7.566L2.462.226C2.08.02 1.728-.029 1.442.06l11.032 10.933 3.456-3.426" id="a"/><linearGradient x1="-14.698%" y1="-114.322%" x2="74.844%" y2="114.156%" id="c"><stop stop-color="#FC227C" offset="0%"/><stop stop-color="#FEEB7B" offset="100%"/></linearGradient><linearGradient x1="28.151%" y1="-14.814%" x2="48.188%" y2="82.894%" id="e"><stop stop-color="#0E4DA0" offset="0%"/><stop stop-color="#6BFED4" offset="100%"/></linearGradient><path d="M1.442.06C1.032.185.767.596.767 1.22L.77 20.79c0 .616.257 1.02.654 1.156l11.05-10.952L1.442.059" id="d"/><linearGradient x1="132.245%" y1="16.466%" x2="5.959%" y2="126.31%" id="g"><stop stop-color="#FC472E" offset="0%"/><stop stop-color="#FC472E" offset=".332%"/><stop stop-color="#893CD8" offset="100%"/></linearGradient><path d="M1.424 21.946c.288.096.647.051 1.038-.162l13.484-7.35-3.472-3.44-11.05 10.952" id="f"/><path d="M13.57 7.389L1.437.732C1.093.544.776.5.518.58l9.94 9.916 3.113-3.107" id="h"/><path d="M3.574 6.228l3.727-2.045c.757-.416.757-1.094 0-1.509L3.56.621.757 3.418l2.817 2.81" id="j"/><path d="M.608.86C.24.975 0 1.348 0 1.912l.003 17.75c0 .557.231.925.59 1.047l9.955-9.933L.608.86" id="k"/><path d="M.254 9.345c.232.079.524.042.84-.132l10.936-6L9.214.406l-8.96 8.94" id="m"/></defs><g transform="translate(0 1)" fill="none" fill-rule="evenodd"><g transform="translate(11.547 7.918)"><use fill="url(#b)" xlink:href="#a"/><path d="M15.948 14.435l4.598-2.506c.932-.51.932-1.34 0-1.848L15.93 7.566l-3.457 3.426 3.474 3.443" fill="url(#c)"/><use fill="url(#e)" xlink:href="#d"/><use fill="url(#g)" xlink:href="#f"/></g><g transform="translate(12.99 7.526)"><mask id="i" fill="#fff"><use xlink:href="#h"/></mask><path d="M13.57 7.389L1.437.732C1.093.544.776.5.518.58l9.94 9.916 3.113-3.107" mask="url(#i)"/></g><g transform="translate(12.99 7.526)"><mask id="l" fill="#fff"><use xlink:href="#k"/></mask><path d="M1.465 1.95c-.332.104-.548.44-.548.947L.92 18.874c0 .501.208.833.53.943l8.96-8.94L1.466 1.95" mask="url(#l)"/></g><g transform="translate(14.106 17.998)"><mask id="n" fill="#fff"><use xlink:href="#m"/></mask><path d="M.254 9.345c.232.079.524.042.84-.132l10.936-6L9.214.406l-8.96 8.94" mask="url(#n)"/></g><circle stroke="#CFCFCF" cx="19.5" cy="19" r="19"/></g></svg>