<svg width="220" height="36" viewBox="0 0 220 36" xmlns="http://www.w3.org/2000/svg" xmlns:xlink="http://www.w3.org/1999/xlink"><defs><path id="a" d="M.218 19.15h18.934V.22H.218z"/></defs><g fill="none" fill-rule="evenodd"><path fill="#FFF" d="M83.324 29.919h4.619V12.995h-4.62zM76.774 12.996L72.25 25.309l-4.523-12.313H63.11l6.217 16.923H75.174l6.216-16.923zM104.25 16.725v-3.73h-5.533V8.327h-4.615v4.668H90.45v3.73h3.653v7.282c0 3.755 1.877 6.263 6.672 6.263 1.852 0 3.477-.68 3.477-.68l-.56-3.655s-.912.272-2.03.272c-1.37 0-2.944-.592-2.944-2.487v-6.995h5.534zM50.837 21.458l2.863-7.795 2.864 7.795h-5.727zm8.835 8.46h4.917L55.485 5.132h-3.567l-9.103 24.788h4.914l1.738-4.731h8.467l1.738 4.73zM114.841 26.05c-2.574 0-4.662-2.04-4.662-4.56 0-2.515 2.088-4.557 4.662-4.557 2.575 0 4.661 2.042 4.661 4.558 0 2.519-2.086 4.56-4.66 4.56m0-13.487c-5.006 0-9.066 3.97-9.066 8.864 0 4.898 4.06 8.866 9.065 8.866 5.004 0 9.064-3.968 9.064-8.866 0-4.894-4.06-8.864-9.064-8.864M88.61 8.04a2.978 2.978 0 1 1-5.954-.003 2.978 2.978 0 0 1 5.955.002M15.562 7.781A7.78 7.78 0 1 1 0 7.781a7.78 7.78 0 0 1 15.562 0"/><g transform="translate(15.881 15.881)"><mask id="b" fill="#fff"><use xlink:href="#a"/></mask><path d="M19.152 9.684a9.466 9.466 0 0 1-9.466 9.467c-5.229 0-9.468-4.238-9.468-9.467S4.458.22 9.686.22s9.466 4.236 9.466 9.465" fill="#FFF" mask="url(#b)"/></g><path d="M31.66 7.781a6.093 6.093 0 1 1-12.187-.002 6.093 6.093 0 0 1 12.186.002M12.187 25.565a4.406 4.406 0 1 1-8.812-.001 4.406 4.406 0 0 1 8.812.001M217.07 13.744a2.1 2.1 0 0 1 .428-.496.908.908 0 0 1 .609-.224h1.717V29.94h-2.314V17.923c0-.33.008-.68.024-1.045.016-.366.052-.754.107-1.163-.135.354-.28.683-.435.986a8.326 8.326 0 0 1-.459.797l-8.014 11.722a2.101 2.101 0 0 1-.43.495.908.908 0 0 1-.608.225h-1.717V13.024h2.313v12.029c0 .338-.008.69-.024 1.056-.015.366-.051.758-.107 1.175.135-.362.28-.695.435-.998.155-.303.308-.576.46-.82l8.014-11.722zm-13.036 1.086h-7.98v15.11h-2.313V13.024h10.293v1.806zm-22.816 13.362c.2 0 .398-.021.597-.064.198-.044.39-.12.572-.23.183-.11.358-.258.525-.443.167-.185.318-.42.453-.703l.835-1.723-6.87-12.005h2.16c.206 0 .369.05.488.147.12.099.223.227.31.384l4.222 7.673c.294.559.533 1.125.716 1.7.079-.283.175-.567.286-.85.111-.284.234-.567.37-.85l3.59-7.673c.063-.134.16-.256.292-.366a.744.744 0 0 1 .494-.165h1.909l-6.941 14.708a5.283 5.283 0 0 1-.698 1.151c-.25.303-.519.543-.805.72a3 3 0 0 1-.93.378 4.908 4.908 0 0 1-1.074.112c-.429 0-.759-.037-.99-.112-.23-.075-.345-.187-.345-.337v-1.452h.834zm-5.546-15.168V29.94h-2.313V14.83h-5.653c-.112 2.172-.26 4.057-.448 5.654-.186 1.598-.413 2.963-.68 4.096-.266 1.134-.568 2.056-.906 2.769-.338.712-.707 1.272-1.109 1.682-.402.409-.833.688-1.294.838-.461.15-.95.224-1.467.224-.43 0-.76-.037-.99-.112-.23-.075-.346-.187-.346-.337v-1.452h.835c.318 0 .632-.06.943-.182.31-.122.608-.368.894-.738.286-.37.556-.897.81-1.582.255-.685.486-1.59.693-2.715.206-1.125.385-2.5.536-4.126.151-1.625.267-3.567.346-5.825h10.15zm-16.685 13.598c.135-.117.27-.177.406-.177.127 0 .239.052.334.154l.918.98a7.308 7.308 0 0 1-2.546 1.877c-.998.448-2.205.672-3.62.672-1.224 0-2.337-.21-3.34-.631a7.347 7.347 0 0 1-2.563-1.77c-.708-.76-1.257-1.671-1.646-2.733-.39-1.063-.584-2.232-.584-3.506 0-1.275.202-2.444.608-3.506.405-1.063.976-1.976 1.711-2.739a7.66 7.66 0 0 1 2.642-1.777c1.026-.42 2.158-.631 3.399-.631 1.216 0 2.29.193 3.22.578.93.386 1.749.91 2.457 1.57l-.764 1.051a.621.621 0 0 1-.184.195.535.535 0 0 1-.304.076c-.144 0-.318-.076-.525-.23a7.978 7.978 0 0 0-.811-.513 6.32 6.32 0 0 0-1.253-.514c-.5-.153-1.117-.23-1.848-.23-.883 0-1.69.152-2.421.455a5.283 5.283 0 0 0-1.89 1.316c-.53.574-.94 1.275-1.235 2.1-.294.827-.441 1.76-.441 2.799 0 1.054.153 1.994.46 2.82.305.827.722 1.526 1.251 2.096a5.288 5.288 0 0 0 1.873 1.304c.72.3 1.497.45 2.331.45.51 0 .968-.03 1.378-.09a5.68 5.68 0 0 0 1.133-.277c.346-.126.668-.285.966-.478a6.87 6.87 0 0 0 .888-.69zm-23.518 1.57a2.8 2.8 0 0 0 .596-.064c.199-.044.39-.12.573-.23.182-.11.357-.258.524-.443.167-.185.318-.42.454-.703l.834-1.723-6.87-12.005h2.16c.206 0 .37.05.489.147.119.099.222.227.31.384l4.222 7.673c.294.559.532 1.125.715 1.7.08-.283.175-.567.286-.85.112-.284.235-.567.37-.85l3.59-7.673c.063-.134.16-.256.292-.366a.744.744 0 0 1 .495-.165h1.908l-6.94 14.708a5.273 5.273 0 0 1-.699 1.151c-.25.303-.518.543-.805.72a3.003 3.003 0 0 1-.93.378 4.905 4.905 0 0 1-1.073.112c-.43 0-.76-.037-.99-.112-.23-.075-.346-.187-.346-.337v-1.452h.835z" fill="#FFF"/></g></svg>