<svg width="198" height="32" viewBox="0 0 198 32" xmlns="http://www.w3.org/2000/svg" xmlns:xlink="http://www.w3.org/1999/xlink"><defs><path id="a" d="M.197 17.236h17.04V.197H.197z"/></defs><g fill="none" fill-rule="evenodd"><path fill="#FFF" d="M74.991 26.927h4.158V11.696H74.99zM69.096 11.696l-4.071 11.082-4.07-11.082h-4.156l5.595 15.23H67.657l5.594-15.23zM93.825 15.053v-3.358h-4.98v-4.2h-4.153v4.2h-3.288v3.358h3.288v6.553c0 3.38 1.69 5.637 6.004 5.637 1.668 0 3.13-.612 3.13-.612l-.505-3.29s-.82.245-1.826.245c-1.232 0-2.65-.532-2.65-2.238v-6.295h4.98zM45.754 19.312l2.576-7.015 2.578 7.015h-5.154zm7.95 7.615h4.426l-8.194-22.31h-3.21l-8.193 22.31h4.423l1.564-4.258h7.62l1.564 4.258zM103.357 23.446c-2.317 0-4.196-1.837-4.196-4.105 0-2.264 1.879-4.101 4.196-4.101 2.318 0 4.195 1.837 4.195 4.101 0 2.268-1.877 4.105-4.195 4.105m0-12.139c-4.505 0-8.159 3.573-8.159 7.978 0 4.408 3.654 7.98 8.16 7.98 4.502 0 8.157-3.572 8.157-7.98 0-4.405-3.655-7.978-8.158-7.978M79.75 7.235a2.68 2.68 0 1 1-5.36-.001 2.68 2.68 0 0 1 5.36.001M14.005 7.003A7.003 7.003 0 1 1 0 7.003a7.003 7.003 0 0 1 14.005 0"/><g transform="translate(14.293 14.293)"><mask id="b" fill="#fff"><use xlink:href="#a"/></mask><path d="M17.237 8.716a8.52 8.52 0 0 1-8.52 8.52 8.52 8.52 0 1 1 0-17.039 8.519 8.519 0 0 1 8.52 8.519" fill="#FFF" mask="url(#b)"/></g><path d="M28.493 7.003a5.484 5.484 0 1 1-10.968-.001 5.484 5.484 0 0 1 10.968.001M10.968 23.009a3.965 3.965 0 1 1-7.93-.002 3.965 3.965 0 0 1 7.93.002M195.362 12.37c.1-.163.23-.312.386-.447a.817.817 0 0 1 .548-.202h1.546v15.225h-2.083V16.13c0-.297.007-.61.022-.94.014-.33.046-.678.096-1.046a8.948 8.948 0 0 1-.391.887c-.14.273-.278.512-.414.717l-7.213 10.55c-.1.162-.229.311-.386.446a.817.817 0 0 1-.547.202h-1.546V11.72h2.082v10.826c0 .305-.007.622-.021.951-.015.33-.047.682-.097 1.057.122-.325.252-.625.392-.897.14-.273.277-.52.413-.739l7.213-10.55zm-11.732.977h-7.18v13.599h-2.083V11.72h9.263v1.626zm-20.533 12.026c.178 0 .357-.02.536-.058.18-.039.35-.108.516-.207.164-.1.322-.232.472-.399a2.62 2.62 0 0 0 .408-.632l.751-1.55-6.182-10.806h1.942c.186 0 .333.045.44.133.108.089.2.204.28.345l3.8 6.906a9.44 9.44 0 0 1 .643 1.53c.071-.255.157-.51.258-.765.1-.255.21-.51.332-.765l3.231-6.906a.987.987 0 0 1 .263-.329.67.67 0 0 1 .446-.149h1.717l-6.247 13.238a4.754 4.754 0 0 1-.628 1.036 2.987 2.987 0 0 1-.724.648 2.7 2.7 0 0 1-.838.34c-.3.067-.622.1-.966.1-.386 0-.683-.033-.89-.1-.208-.067-.312-.168-.312-.303v-1.307h.752zm-4.992-13.652v15.225h-2.082v-13.6h-5.088a79.82 79.82 0 0 1-.402 5.09c-.169 1.438-.373 2.666-.612 3.686-.24 1.02-.512 1.85-.816 2.492-.304.64-.637 1.145-.998 1.514-.362.368-.75.62-1.165.754a4.256 4.256 0 0 1-1.32.202c-.386 0-.683-.034-.89-.101-.209-.067-.312-.168-.312-.303v-1.307h.751c.286 0 .569-.054.848-.164.28-.11.548-.331.805-.664.258-.333.5-.808.73-1.424.229-.616.436-1.43.623-2.444.186-1.012.347-2.25.483-3.713.135-1.462.24-3.21.31-5.243h9.135zm-15.016 12.24a.558.558 0 0 1 .365-.16.4.4 0 0 1 .3.138l.827.882a6.578 6.578 0 0 1-2.292 1.69c-.898.403-1.984.605-3.258.605-1.102 0-2.103-.19-3.005-.569a6.612 6.612 0 0 1-2.308-1.593c-.637-.684-1.13-1.504-1.481-2.46-.35-.956-.526-2.008-.526-3.155 0-1.148.182-2.2.547-3.156a7.21 7.21 0 0 1 1.54-2.464 6.895 6.895 0 0 1 2.378-1.6c.923-.378 1.943-.568 3.06-.568 1.094 0 2.06.174 2.897.521a7.31 7.31 0 0 1 2.212 1.413l-.688.946a.56.56 0 0 1-.166.175.482.482 0 0 1-.273.069c-.13 0-.287-.07-.473-.207a7.18 7.18 0 0 0-.73-.462c-.3-.17-.676-.325-1.127-.463-.45-.138-1.005-.207-1.663-.207-.795 0-1.521.137-2.18.41a4.755 4.755 0 0 0-1.7 1.184c-.477.517-.847 1.147-1.112 1.89-.264.745-.397 1.584-.397 2.519 0 .949.138 1.795.414 2.539.275.744.65 1.372 1.127 1.886a4.76 4.76 0 0 0 1.685 1.174c.647.269 1.347.403 2.098.403.458 0 .871-.026 1.24-.08a5.112 5.112 0 0 0 1.02-.249c.31-.113.6-.257.87-.43.267-.174.534-.38.799-.622zm-21.167 1.412c.179 0 .358-.02.537-.058.179-.039.35-.108.515-.207.164-.1.322-.232.472-.399.15-.166.286-.377.408-.632l.751-1.55-6.182-10.806h1.943c.186 0 .332.045.44.133.107.089.2.204.279.345l3.8 6.906a9.44 9.44 0 0 1 .643 1.53c.072-.255.158-.51.258-.765s.211-.51.333-.765l3.23-6.906a.987.987 0 0 1 .264-.329.67.67 0 0 1 .445-.149h1.718l-6.248 13.238a4.746 4.746 0 0 1-.627 1.036 2.995 2.995 0 0 1-.725.648c-.258.16-.537.273-.837.34-.3.067-.623.1-.966.1-.387 0-.684-.033-.891-.1-.208-.067-.311-.168-.311-.303v-1.307h.751z" fill="#FFF"/></g></svg>