<svg width="160" height="26" viewBox="0 0 160 26" xmlns="http://www.w3.org/2000/svg" xmlns:xlink="http://www.w3.org/1999/xlink"><title>Logo</title><defs><path id="a" d="M.159 13.928h13.77V.159H.159z"/></defs><g fill="none" fill-rule="evenodd"><path fill="#FFF" d="M60.6 21.759h3.358V9.451H60.6zM55.835 9.451l-3.29 8.955-3.289-8.955h-3.358L50.42 21.76h4.252l4.52-12.308zM75.819 12.164V9.45h-4.025V6.056h-3.356v3.395h-2.657v2.713h2.657v5.295c0 2.732 1.365 4.556 4.852 4.556 1.347 0 2.529-.495 2.529-.495l-.408-2.658s-.662.198-1.475.198c-.996 0-2.142-.43-2.142-1.809v-5.087h4.025zM36.973 15.606l2.082-5.67 2.083 5.67h-4.165zm6.425 6.153h3.576L40.353 3.732h-2.595l-6.62 18.027h3.574l1.264-3.44h6.158l1.264 3.44zM83.521 18.946c-1.873 0-3.391-1.485-3.391-3.317 0-1.83 1.518-3.314 3.391-3.314s3.39 1.485 3.39 3.314c0 1.832-1.517 3.317-3.39 3.317m0-9.809c-3.64 0-6.593 2.887-6.593 6.447 0 3.562 2.953 6.448 6.593 6.448 3.639 0 6.592-2.886 6.592-6.448 0-3.56-2.953-6.447-6.592-6.447M64.444 5.847a2.166 2.166 0 1 1-4.33-.002 2.166 2.166 0 0 1 4.33.002M11.318 5.66A5.659 5.659 0 1 1 0 5.657a5.659 5.659 0 0 1 11.318.001"/><g transform="translate(11.55 11.55)"><mask id="b" fill="#fff"><use xlink:href="#a"/></mask><path d="M7.044 13.928a6.885 6.885 0 1 1 0-13.77 6.885 6.885 0 0 1 0 13.77z" fill="#FFF" mask="url(#b)"/></g><path d="M23.025 5.66a4.43 4.43 0 1 1-8.862-.001 4.43 4.43 0 0 1 8.862 0M8.863 18.593a3.204 3.204 0 1 1-6.409-.001 3.204 3.204 0 0 1 6.41.001M157.868 9.996c.081-.132.185-.252.313-.361a.66.66 0 0 1 .442-.163h1.249v12.302h-1.683v-8.74c0-.24.006-.493.018-.76a9.23 9.23 0 0 1 .078-.845 7.231 7.231 0 0 1-.317.717c-.113.22-.224.414-.334.58l-5.828 8.525a1.528 1.528 0 0 1-.313.36.66.66 0 0 1-.442.163h-1.25V9.472h1.684v8.748c0 .246-.006.502-.018.768a9.726 9.726 0 0 1-.078.855c.098-.264.204-.505.317-.726.112-.22.224-.419.334-.596l5.828-8.525zm-9.48.79h-5.803v10.988h-1.682V9.472h7.485v1.313zm-16.593 9.718c.145 0 .29-.016.434-.047.144-.032.283-.088.416-.168.133-.08.26-.187.382-.322.121-.134.231-.305.33-.51l.607-1.254-4.996-8.731h1.57c.15 0 .269.036.355.107a.963.963 0 0 1 .226.28l3.07 5.58c.214.406.388.818.52 1.236.058-.206.128-.412.209-.618.08-.207.17-.413.269-.619l2.61-5.58a.797.797 0 0 1 .213-.266.541.541 0 0 1 .36-.12h1.388l-5.048 10.697a3.842 3.842 0 0 1-.508.837c-.182.22-.377.395-.585.524-.208.128-.434.22-.677.274a3.57 3.57 0 0 1-.78.082c-.313 0-.553-.027-.72-.082-.168-.054-.252-.136-.252-.244v-1.056h.607zm-4.033-11.032v12.302h-1.683V10.785h-4.111c-.081 1.58-.19 2.95-.325 4.113-.136 1.162-.301 2.155-.495 2.979-.194.824-.413 1.495-.66 2.013-.245.518-.514.926-.806 1.223-.292.298-.606.501-.94.61a3.44 3.44 0 0 1-1.068.163c-.312 0-.552-.027-.72-.082-.167-.054-.251-.136-.251-.244v-1.056h.607c.231 0 .46-.045.685-.133.226-.09.443-.268.65-.537.209-.269.405-.652.59-1.15.186-.498.353-1.156.504-1.975.15-.818.28-1.819.39-3 .11-1.182.194-2.594.252-4.237h7.38zm-12.135 9.89a.45.45 0 0 1 .295-.129c.092 0 .174.037.243.112l.668.712a5.315 5.315 0 0 1-1.852 1.365c-.726.326-1.603.49-2.632.49-.89 0-1.7-.153-2.43-.46a5.343 5.343 0 0 1-1.864-1.287 5.808 5.808 0 0 1-1.197-1.988c-.283-.773-.425-1.622-.425-2.55 0-.927.148-1.777.442-2.55a5.826 5.826 0 0 1 1.245-1.991 5.571 5.571 0 0 1 1.921-1.292c.746-.306 1.57-.46 2.472-.46.885 0 1.666.14 2.342.421.677.28 1.272.661 1.787 1.142l-.555.764a.452.452 0 0 1-.135.142.39.39 0 0 1-.22.055c-.105 0-.232-.055-.382-.167a5.802 5.802 0 0 0-.59-.373 4.597 4.597 0 0 0-.91-.374c-.365-.111-.813-.167-1.345-.167-.642 0-1.23.11-1.761.33-.532.22-.99.54-1.375.957a4.403 4.403 0 0 0-.898 1.529c-.214.6-.32 1.279-.32 2.034 0 .767.11 1.451.333 2.052.223.601.526 1.11.911 1.524.385.415.839.731 1.362.949a4.373 4.373 0 0 0 1.696.326c.37 0 .704-.021 1.001-.064a4.13 4.13 0 0 0 .824-.202 3.48 3.48 0 0 0 .703-.348c.217-.14.432-.308.646-.502zm-17.104 1.142c.144 0 .289-.016.433-.047.145-.032.284-.088.417-.168.133-.08.26-.187.381-.322.122-.134.232-.305.33-.51l.607-1.254-4.996-8.731h1.57c.15 0 .269.036.356.107a.965.965 0 0 1 .225.28l3.07 5.58c.215.406.388.818.521 1.236a6.39 6.39 0 0 1 .208-.618c.081-.207.17-.413.27-.619l2.61-5.58a.797.797 0 0 1 .213-.266.54.54 0 0 1 .36-.12h1.387l-5.048 10.697a3.835 3.835 0 0 1-.507.837 2.42 2.42 0 0 1-.586.524c-.208.128-.433.22-.676.274a3.567 3.567 0 0 1-.781.082c-.312 0-.552-.027-.72-.082-.168-.054-.251-.136-.251-.244v-1.056h.607z" fill="#FFF"/></g></svg>