<svg width="271" height="38" viewBox="0 0 271 38" xmlns="http://www.w3.org/2000/svg"><title>Logo</title><g fill="#FFF" fill-rule="evenodd"><path d="M89 15h4v18h-4zM81.202 15l-4.701 13.097L71.8 15H67l6.462 18h6.078L86 15h-4.798M111 17.803v-3.91h-6.013V9h-5.016v4.894H96v3.91h3.971v7.63c0 3.938 2.041 6.566 7.25 6.566 2.013 0 3.779-.714 3.779-.714l-.609-3.83s-.99.284-2.204.284c-1.489 0-3.2-.62-3.2-2.604v-7.333H111M62.806 32H68L58.384 6h-3.768L45 32h5.19l1.838-4.963h8.943L62.806 32zm-9.332-8.875l3.025-8.177 3.024 8.177h-6.05zM121.501 13c-5.248 0-9.501 4.254-9.501 9.5a9.5 9.5 0 0 0 9.501 9.5c5.244 0 9.499-4.252 9.499-9.5 0-5.246-4.255-9.5-9.499-9.5m0 14.453a4.886 4.886 0 1 1-.001-9.768 4.886 4.886 0 0 1 .001 9.768M93 9c0 1.657-1.345 3-3.003 3A2.998 2.998 0 0 1 87 9c0-1.657 1.34-3 2.997-3A3.001 3.001 0 0 1 93 9M16 8a8 8 0 0 1-8 8 8 8 0 0 1-8-8 8 8 0 1 1 16 0M37 27.999C37 33.523 32.524 38 27 38c-5.522 0-10-4.477-10-10.001C17 22.475 21.478 18 27 18c5.524 0 10 4.475 10 9.999M33 7.5a6.5 6.5 0 1 1-13.001 0A6.5 6.5 0 0 1 33 7.5M13 27.5a4.5 4.5 0 1 1-9 0 4.5 4.5 0 0 1 9 0M157.84 15.178v14.25h2.721v4.927a.599.599 0 0 1-.197.467c-.132.119-.307.178-.524.178h-1.337v-3.882H145.07v3.237a.59.59 0 0 1-.203.467.758.758 0 0 1-.518.178H143v-5.573h1.698c.24-.111.48-.29.721-.54.24-.248.471-.604.692-1.067.221-.464.428-1.048.622-1.752.194-.705.37-1.567.53-2.586.158-1.02.296-2.212.412-3.577.117-1.364.206-2.94.268-4.727h9.897zm-7.78 1.702a64.624 64.624 0 0 1-.402 4.794c-.174 1.372-.378 2.56-.61 3.565-.233 1.005-.493 1.847-.78 2.525-.286.679-.593 1.233-.918 1.663h8.222V16.88h-5.513zm28.586 6.274c0 1.193-.198 2.29-.593 3.286a7.486 7.486 0 0 1-1.675 2.576 7.512 7.512 0 0 1-2.6 1.674c-1.011.396-2.13.595-3.354.595-1.225 0-2.342-.199-3.35-.595a7.524 7.524 0 0 1-2.593-1.674 7.486 7.486 0 0 1-1.675-2.576c-.395-.997-.593-2.093-.593-3.286 0-1.194.198-2.29.593-3.287a7.545 7.545 0 0 1 1.675-2.581 7.55 7.55 0 0 1 2.593-1.685c1.008-.4 2.125-.601 3.35-.601s2.343.2 3.355.6c1.012.401 1.878.963 2.6 1.686a7.545 7.545 0 0 1 1.674 2.58c.395.998.593 2.094.593 3.288zm-2.314 0c0-.98-.14-1.858-.419-2.637-.28-.778-.675-1.437-1.186-1.974a5.156 5.156 0 0 0-1.861-1.24c-.729-.29-1.543-.434-2.442-.434-.892 0-1.702.144-2.431.434a5.213 5.213 0 0 0-1.867 1.24c-.515.537-.913 1.196-1.192 1.974-.279.779-.418 1.658-.418 2.637 0 .978.14 1.855.418 2.63.28.775.677 1.431 1.192 1.97.516.537 1.138.948 1.867 1.234.729.285 1.539.428 2.43.428.9 0 1.714-.143 2.443-.428a5.097 5.097 0 0 0 1.86-1.235c.512-.538.908-1.194 1.187-1.969.28-.775.419-1.652.419-2.63zm17.235 4.671c.124 0 .233.049.326.145l.895.923a7.114 7.114 0 0 1-2.483 1.769c-.973.423-2.15.634-3.53.634-1.193 0-2.279-.198-3.256-.595a7.174 7.174 0 0 1-2.5-1.669c-.69-.715-1.225-1.574-1.605-2.575-.38-1-.57-2.102-.57-3.303 0-1.202.198-2.303.593-3.304a7.517 7.517 0 0 1 1.67-2.58 7.486 7.486 0 0 1 2.575-1.675c1-.397 2.105-.595 3.315-.595 1.186 0 2.233.182 3.14.545a7.953 7.953 0 0 1 2.396 1.48l-.745.99a.595.595 0 0 1-.18.183.535.535 0 0 1-.297.072c-.14 0-.31-.072-.511-.217a7.826 7.826 0 0 0-.791-.483 6.297 6.297 0 0 0-1.221-.484c-.489-.145-1.09-.217-1.803-.217-.86 0-1.647.142-2.36.428a5.16 5.16 0 0 0-1.844 1.24c-.516.542-.917 1.202-1.204 1.98-.287.779-.43 1.658-.43 2.637 0 .993.15 1.88.448 2.658.298.779.705 1.437 1.22 1.974a5.167 5.167 0 0 0 1.827 1.23c.701.281 1.46.422 2.273.422a9.8 9.8 0 0 0 1.344-.083c.399-.056.767-.143 1.104-.262.338-.118.652-.268.942-.45.291-.182.58-.399.867-.65a.615.615 0 0 1 .395-.168zm15.108-12.647v1.813h-5.397v14.127h-2.244V16.99h-5.408v-1.813h13.049zm15.991 15.94h-1.745a.774.774 0 0 1-.488-.145.892.892 0 0 1-.28-.367l-1.558-3.848h-7.478l-1.558 3.848a.783.783 0 0 1-.768.512h-1.732l6.664-15.94h2.279l6.664 15.94zm-10.92-5.918h6.221l-2.616-6.485a6.91 6.91 0 0 1-.25-.667 33.356 33.356 0 0 1-.25-.812c-.078.289-.157.562-.239.817-.081.256-.165.48-.25.673l-2.617 6.474zm13.095 5.918v-15.94h5.315c1.023 0 1.905.096 2.646.29.74.192 1.349.466 1.825.822.477.356.828.792 1.053 1.307.225.516.337 1.096.337 1.741a3.328 3.328 0 0 1-.768 2.147 3.95 3.95 0 0 1-.97.834c-.392.245-.851.445-1.379.6 1.218.23 2.136.65 2.757 1.258.62.608.93 1.409.93 2.403 0 .674-.13 1.29-.39 1.846a3.98 3.98 0 0 1-1.14 1.435c-.5.4-1.114.71-1.843.929-.728.219-1.558.328-2.488.328h-5.885zm2.244-7.264v5.55h3.606c.643 0 1.198-.07 1.663-.21.465-.141.847-.34 1.145-.596.299-.255.518-.56.657-.912.14-.352.21-.74.21-1.162 0-.823-.306-1.474-.919-1.952-.612-.479-1.531-.718-2.756-.718h-3.606zm0-1.535h2.978c.635 0 1.188-.066 1.657-.2.47-.133.857-.319 1.163-.556.306-.237.533-.525.68-.862.148-.338.221-.707.221-1.107 0-.942-.294-1.63-.884-2.063-.589-.434-1.504-.651-2.744-.651h-3.07v5.44zm15.038-.155h1.733c.349 0 .645-.052.89-.156.244-.104.486-.308.726-.612l4.362-5.606a1.57 1.57 0 0 1 .424-.44c.167-.115.363-.172.588-.172h1.895l-5.036 6.552a2.787 2.787 0 0 1-.657.656 3.07 3.07 0 0 1-.808.4c.411.104.756.27 1.035.495.28.227.55.54.814.94l5.094 6.897h-2.023a.956.956 0 0 1-.576-.173 1.781 1.781 0 0 1-.448-.506l-4.408-5.84c-.201-.289-.418-.49-.651-.606-.233-.115-.55-.172-.954-.172h-2v7.297h-2.245v-15.94h2.245v6.986zM271 31.118h-1.745a.774.774 0 0 1-.488-.145.892.892 0 0 1-.28-.367l-1.558-3.848h-7.478l-1.558 3.848a.783.783 0 0 1-.768.512h-1.732l6.664-15.94h2.279L271 31.118zM260.08 25.2h6.221l-2.616-6.485a6.91 6.91 0 0 1-.25-.667 33.352 33.352 0 0 1-.25-.812c-.078.289-.157.562-.239.817-.081.256-.165.48-.25.673L260.08 25.2z"/></g></svg>