<svg width="186" height="26" viewBox="0 0 186 26" xmlns="http://www.w3.org/2000/svg"><title>Logo</title><g fill="#FFF" fill-rule="evenodd"><path d="M61 10h3v12h-3zM55.717 10l-3.216 8.731L49.284 10H46l4.422 12h4.158L59 10h-3.283M76 12.124v-2.72h-4.009V6h-3.343v3.404H66v2.72h2.648v5.309c0 2.739 1.36 4.567 4.833 4.567 1.342 0 2.519-.497 2.519-.497l-.406-2.664s-.66.198-1.47.198c-.992 0-2.133-.432-2.133-1.812v-5.1H76M43.387 22H47L40.31 4h-2.62L31 22h3.61l1.279-3.436h6.222L43.387 22zm-6.492-6.144l2.104-5.661 2.104 5.66h-4.208zM83.5 9a6.5 6.5 0 1 0 0 13.001A6.5 6.5 0 0 0 83.5 9m0 9.889a3.343 3.343 0 1 1-.001-6.683 3.343 3.343 0 0 1 .002 6.683M64 6a2 2 0 1 1-4.002-.002A2 2 0 0 1 64 6M11 5.5a5.5 5.5 0 1 1-11 0 5.5 5.5 0 0 1 11 0M26 18.999A7 7 0 1 1 12 19 7 7 0 0 1 26 19M23 5.5a4.5 4.5 0 1 1-9 0 4.5 4.5 0 0 1 9 0M9 19a3 3 0 1 1-6 0 3 3 0 0 1 6 0M108.199 10.125v9.974h1.87v3.45a.423.423 0 0 1-.136.326.511.511 0 0 1-.36.125h-.919v-2.717h-9.231v2.265a.417.417 0 0 1-.14.327.515.515 0 0 1-.356.125H98v-3.901h1.167a1.7 1.7 0 0 0 .495-.378c.166-.174.324-.423.476-.747a7.64 7.64 0 0 0 .428-1.227c.133-.493.254-1.096.363-1.81a37.4 37.4 0 0 0 .284-2.503c.08-.955.141-2.058.184-3.31h6.802zm-5.347 1.19a46.058 46.058 0 0 1-.276 3.357c-.12.96-.26 1.792-.42 2.495-.16.704-.338 1.293-.535 1.768a5.483 5.483 0 0 1-.632 1.164h5.651v-8.783h-3.788zm19.646 4.392c0 .836-.136 1.603-.408 2.301a5.25 5.25 0 0 1-1.15 1.803 5.153 5.153 0 0 1-1.787 1.172c-.696.277-1.464.416-2.306.416-.842 0-1.61-.139-2.302-.416a5.162 5.162 0 0 1-1.782-1.172 5.25 5.25 0 0 1-1.151-1.803 6.292 6.292 0 0 1-.408-2.3c0-.836.136-1.603.408-2.301.271-.699.655-1.3 1.15-1.807a5.18 5.18 0 0 1 1.783-1.18c.693-.28 1.46-.42 2.302-.42.842 0 1.61.14 2.306.42.695.28 1.29.674 1.786 1.18.496.506.88 1.108 1.151 1.807.272.698.408 1.465.408 2.3zm-1.59 0c0-.685-.097-1.3-.289-1.845a3.88 3.88 0 0 0-.815-1.382 3.54 3.54 0 0 0-1.279-.868 4.443 4.443 0 0 0-1.678-.304 4.42 4.42 0 0 0-1.67.304c-.501.202-.93.492-1.283.868a3.85 3.85 0 0 0-.82 1.382c-.192.545-.287 1.16-.287 1.845 0 .686.095 1.3.287 1.842.192.542.465 1.002.82 1.378.354.376.782.665 1.282.864.501.2 1.058.3 1.67.3.619 0 1.178-.1 1.68-.3.5-.2.926-.488 1.278-.864s.624-.836.815-1.378c.192-.543.288-1.156.288-1.842zm11.844 3.27a.3.3 0 0 1 .224.102l.616.646a4.892 4.892 0 0 1-1.707 1.238c-.669.296-1.477.444-2.426.444-.82 0-1.566-.139-2.238-.416a4.926 4.926 0 0 1-1.718-1.168 5.254 5.254 0 0 1-1.103-1.803c-.261-.7-.392-1.472-.392-2.313 0-.84.136-1.611.408-2.312.272-.7.654-1.303 1.147-1.807a5.137 5.137 0 0 1 1.77-1.171c.688-.278 1.447-.417 2.278-.417.816 0 1.535.127 2.158.382a5.45 5.45 0 0 1 1.647 1.035l-.512.693a.413.413 0 0 1-.124.129.363.363 0 0 1-.203.05c-.096 0-.214-.05-.352-.152a5.362 5.362 0 0 0-.544-.338 4.282 4.282 0 0 0-.839-.339c-.336-.101-.749-.152-1.239-.152-.591 0-1.132.1-1.622.3-.49.2-.913.49-1.267.868-.354.379-.63.841-.827 1.386-.198.545-.296 1.16-.296 1.845 0 .696.102 1.316.308 1.861.205.545.485 1.006.839 1.383.354.376.773.663 1.255.86a4.087 4.087 0 0 0 1.562.296c.341 0 .65-.02.923-.059.275-.039.528-.1.76-.183a3.23 3.23 0 0 0 .647-.315c.2-.127.398-.279.596-.455a.419.419 0 0 1 .271-.117zm10.383-8.852v1.269h-3.709v9.889h-1.542v-9.89h-3.717v-1.268h8.968zm10.99 11.158h-1.199a.525.525 0 0 1-.336-.102.624.624 0 0 1-.191-.257l-1.071-2.694h-5.14l-1.07 2.694a.547.547 0 0 1-.528.359h-1.191l4.58-11.158h1.566l4.58 11.158zm-7.505-4.143h4.276l-1.798-4.54a4.893 4.893 0 0 1-.172-.467 23.669 23.669 0 0 1-.172-.568 13.13 13.13 0 0 1-.164.572c-.056.18-.113.336-.172.471l-1.798 4.532zm9 4.143V10.125h3.652c.704 0 1.31.067 1.819.202.509.135.927.327 1.255.576.327.25.568.554.723.915.154.36.232.767.232 1.219a2.341 2.341 0 0 1-.528 1.503 2.73 2.73 0 0 1-.667.583c-.27.172-.585.312-.947.42.836.162 1.468.455 1.894.88.426.426.64.987.64 1.683 0 .472-.09.903-.268 1.292-.179.39-.44.724-.784 1.005-.343.28-.766.497-1.267.65-.5.153-1.07.23-1.71.23h-4.044zm1.542-5.085v3.885h2.478c.442 0 .823-.049 1.143-.148.32-.098.582-.237.787-.416.205-.18.356-.392.452-.639.096-.246.144-.517.144-.813 0-.576-.21-1.032-.632-1.367-.42-.335-1.052-.502-1.894-.502h-2.478zm0-1.075h2.046c.437 0 .817-.046 1.14-.14.322-.093.588-.223.799-.389.21-.166.366-.367.467-.603.101-.237.152-.495.152-.775 0-.66-.202-1.14-.607-1.445-.405-.303-1.034-.455-1.887-.455h-2.11v3.807zm10.335-.109h1.19c.24 0 .444-.036.612-.109.168-.072.335-.215.5-.428l2.997-3.924a1.09 1.09 0 0 1 .292-.308c.114-.08.249-.12.403-.12h1.303l-3.46 4.586a1.933 1.933 0 0 1-1.008.74c.283.072.52.188.712.346.191.158.378.378.56.658l3.5 4.828h-1.39a.649.649 0 0 1-.396-.121 1.24 1.24 0 0 1-.308-.354l-3.03-4.088c-.138-.203-.287-.344-.447-.425-.16-.08-.378-.12-.655-.12h-1.375v5.108h-1.543V10.125h1.543v4.89zm18.471 6.269h-1.199a.525.525 0 0 1-.336-.102.624.624 0 0 1-.191-.257l-1.071-2.694h-5.14l-1.07 2.694a.547.547 0 0 1-.528.359h-1.191l4.58-11.158h1.566l4.58 11.158zm-7.505-4.143h4.276l-1.798-4.54a4.893 4.893 0 0 1-.172-.467 23.669 23.669 0 0 1-.172-.568 13.13 13.13 0 0 1-.164.572c-.056.18-.113.336-.172.471l-1.798 4.532z"/></g></svg>